<?xml version="1.0" encoding="UTF-8"?>
<svg id="Layer_3" data-name="Layer 3" xmlns="http://www.w3.org/2000/svg" viewBox="0 0 78 60">
  <defs>
    <style>
      .cls-1 {
        fill: none;
        stroke: #f1f5f9;
        stroke-linecap: round;
        stroke-linejoin: round;
        stroke-width: 2.5px;
      }

      .cls-2 {
        fill: #f1f5f9;
      }
    </style>
  </defs>
  <path class="cls-1" d="m6.97,16.12L2.4,54.82c-.14,1.17.77,2.19,1.95,2.19h66.27c1.04,0,1.9-.81,1.96-1.85l2.54-42.66c.07-1.13-.83-2.08-1.96-2.08h-20.75c-1.08,0-1.96-.88-1.96-1.96v-3.74c0-1.08-.88-1.96-1.96-1.96H8.95c-1.08,0-1.96.88-1.96,1.96v3.97"/>
  <path class="cls-2" d="m69.16,14.45h-24.33c-1.08,0-1.96-.88-1.96-1.97v-3.77c0-1.09-.88-1.97-1.96-1.97H2.76c-1.08,0-1.96.88-1.96,1.97v47.84c0,1.09.88,1.97,1.96,1.97h66.4c1.08,0,1.96-.88,1.96-1.97V16.43c0-1.09-.88-1.97-1.96-1.97Zm-41.38-.84H6.99c-.85,0-1.54-.7-1.54-1.55s.69-1.55,1.54-1.55h20.8c.85,0,1.54.7,1.54,1.55s-.69,1.55-1.54,1.55Z"/>
</svg>