<?xml version="1.0" encoding="UTF-8"?>
<svg id="Layer_3" data-name="Layer 3" xmlns="http://www.w3.org/2000/svg" viewBox="0 0 64 64">
  <defs>
    <style>
      .cls-1 {
        fill: #f1f5f9;
      }

      .cls-1, .cls-2 {
        stroke: #f1f5f9;
        stroke-linecap: round;
        stroke-linejoin: round;
        stroke-width: 2.5px;
      }

      .cls-2 {
        fill: none;
      }
    </style>
  </defs>
  <path class="cls-2" d="m32.08,40.34v-8.34h-8.34c0-2.51-2.04-4.55-4.55-4.55s-4.55,2.04-4.55,4.55H6.31v25.76h8.34c0,2.51,2.04,4.55,4.55,4.55s4.55-2.04,4.55-4.55h0s8.34,0,8.34,0v-8.34c-2.51,0-4.55-2.04-4.55-4.55s2.04-4.55,4.55-4.55Z"/>
  <path class="cls-2" d="m57.88,40.34h0v-8.34h-8.34c0,2.51-2.04,4.55-4.55,4.55s-4.55-2.04-4.55-4.55h-8.34v8.34c-2.51,0-4.55,2.04-4.55,4.55s2.04,4.55,4.55,4.55v8.34h25.76v-8.34h0c2.51,0,4.55-2.04,4.55-4.55s-2.04-4.55-4.55-4.55Z"/>
  <path class="cls-2" d="m32.08,14.57V6.24h-8.34c0,2.51-2.04,4.55-4.55,4.55s-4.55-2.04-4.55-4.55H6.31v8.34h0c-2.51,0-4.55,2.04-4.55,4.55s2.04,4.55,4.55,4.55h0v8.34h8.34c0-2.51,2.04-4.55,4.55-4.55s4.55,2.04,4.55,4.55h8.34v-8.34c2.51,0,4.55-2.04,4.55-4.55s-2.04-4.55-4.55-4.55Z"/>
  <path class="cls-1" d="m49.55,32h8.34v-8.34c-2.51,0-4.55-2.04-4.55-4.55s2.04-4.55,4.55-4.55V6.24h-8.34c0-2.51-2.04-4.55-4.55-4.55s-4.55,2.04-4.55,4.55h0s-8.34,0-8.34,0v8.34c2.51,0,4.55,2.04,4.55,4.55s-2.04,4.55-4.55,4.55v8.34h8.34c0,2.51,2.04,4.55,4.55,4.55s4.55-2.04,4.55-4.55Z"/>
</svg>