<?xml version="1.0" encoding="UTF-8"?>
<svg id="Layer_3" data-name="Layer 3" xmlns="http://www.w3.org/2000/svg" viewBox="0 0 64 64">
  <defs>
    <style>
      .cls-1 {
        stroke-width: 5.02px;
      }

      .cls-1, .cls-2 {
        fill: none;
        stroke: #f1f5f9;
        stroke-linecap: round;
        stroke-linejoin: round;
      }

      .cls-2 {
        stroke-width: 2.5px;
      }
    </style>
  </defs>
  <path class="cls-1" d="m46.14,27.35c1.75,3.22,2.75,6.9,2.75,10.83,0,12.51-10.14,22.65-22.65,22.65S3.59,50.68,3.59,38.17,13.73,15.52,26.24,15.52c3.88,0,7.53.97,10.72,2.69"/>
  <path class="cls-1" d="m37.6,36.29c.1.61.15,1.24.15,1.88,0,6.38-5.17,11.56-11.56,11.56s-11.56-5.17-11.56-11.56,5.17-11.56,11.56-11.56c.95,0,1.87.11,2.75.33"/>
  <line class="cls-2" x1="26.2" y1="38.17" x2="53.7" y2="10.67"/>
  <polygon class="cls-2" points="54.06 19.38 45.67 18.43 44.72 10.04 53.07 1.69 54.03 10.07 62.41 11.03 54.06 19.38"/>
</svg>